<svg xmlns="http://www.w3.org/2000/svg" viewBox="0 0 64 64" width="64px" height="64px"><linearGradient id="UzCDPDHM9jwMzNYyj1Hdga" x1="32" x2="32" y1="6" y2="58" gradientUnits="userSpaceOnUse" spreadMethod="reflect"><stop offset="0" stop-color="#1a6dff"/><stop offset="1" stop-color="#c822ff"/></linearGradient><path fill="none" stroke="url(#UzCDPDHM9jwMzNYyj1Hdga)" stroke-miterlimit="10" stroke-width="2" d="M31.997,7C40.7,7,50,22.992,50,36.842 C50,47.72,43.779,57,31.997,57C20.205,57,14,47.72,14,36.842C14,22.992,23.291,7,31.997,7"/><linearGradient id="UzCDPDHM9jwMzNYyj1Hdgb" x1="39.5" x2="39.5" y1="10" y2="54" gradientUnits="userSpaceOnUse" spreadMethod="reflect"><stop offset="0" stop-color="#6dc7ff"/><stop offset="1" stop-color="#e6abff"/></linearGradient><path fill="url(#UzCDPDHM9jwMzNYyj1Hdgb)" d="M47,36.84c0,4.63-1.31,8.87-3.68,11.93C40.64,52.24,36.83,54,32,54V10 c2.97,0,6.71,3.21,9.75,8.38C45.04,23.95,47,30.85,47,36.84z"/></svg>